http://katmirror.com/wowgirls-klara-and-hanna-final-fantasy-t6673704.html
Download WowGirls - Klara and Hanna - Final Fantasy Torrent - KickassTorrents
login / register
Community
blog
FAQ
Browse
latest
Search
Advanced search Advertising (remove)
+38
-2
report fake
WowGirls - Klara and Hanna - Final Fantasy
seeders: 4
leechers: 0
Download torrent
Added on Sep 20, 2012 by ponklay6059 in XXX	Torrent verified.	Downloaded 10 times.
Main
Technical
Comments 4
WowGirls - Klara and Hanna - Final Fantasy (Size: 303.28 MB)
WowGirls_Klara_Hanna_Final_Fantasy.mp4
303.28 MB
Advertising (remove)
Description
Screens:
http://imgchili.com/show/16516/16516066_wowgirls_klara_hanna.jpg
Today bring to your attention an amazing scene with two Russian beauties, Hanna and Klara. For the girls came to visit and saw the beauties of Timur, caressing each other while helping faloimitatorom. Without thinking, he joined the event. By calling for a sensual and Russian beauties squirt!
WowGirls_Klara_Hanna_Final_Fantasy.mp4
Format : MPEG-4
Format profile : Base Media
Codec ID : isom
File size : 303 MiB
Duration : 23mn 16s
Overall bit rate mode : Variable
Overall bit rate : 1 822 Kbps
Writing application : Lavf52.64.2
Video
ID : 1
Format : AVC
Format/Info : Advanced Video Codec
Format profile : High@L3.1
Format settings, CABAC : Yes
Format settings, ReFrames : 2 frames
Codec ID : avc1
Codec ID/Info : Advanced Video Coding
Duration : 23mn 16s
Bit rate : 1 666 Kbps
Width : 852 pixels
Height : 480 pixels
Display aspect ratio : 16:9
Frame rate mode : Constant
Frame rate : 29.970 fps
Color space : YUV
Chroma subsampling : 4:2:0
Bit depth : 8 bits
Scan type : Progressive
Bits/(Pixel*Frame) : 0.136
Stream size : 277 MiB (91%)
Writing library : x264 core 102 r1666 d058f37
Encoding settings : cabac=1 / ref=2 / deblock=1:0:0 / analyse=0x3:0x113 / me=hex / subme=6 / psy=1 / psy_rd=1.00:0.00 / mixed_ref=0 / me_range=16 / chroma_me=1 / trellis=0 / 8x8dct=1 / cqm=0 / deadzone=21,11 / fast_pskip=1 / chroma_qp_offset=-2 / threads=24 / sliced_threads=0 / nr=0 / decimate=1 / interlaced=0 / constrained_intra=0 / bframes=3 / b_pyramid=0 / b_adapt=1 / b_bias=0 / direct=3 / weightb=1 / open_gop=0 / weightp=2 / keyint=250 / keyint_min=25 / scenecut=40 / intra_refresh=0 / rc_lookahead=40 / rc=crf / mbtree=1 / crf=20.0 / qcomp=0.60 / qpmin=10 / qpmax=51 / qpstep=4 / ip_ratio=1.41 / aq=1:1.00
Audio
ID : 2
Format : AAC
Format/Info : Advanced Audio Codec
Format profile : LC
Codec ID : 40
Duration : 23mn 16s
Bit rate mode : Variable
Bit rate : 150 Kbps
Channel(s) : 2 channels
Channel positions : Front: L R
Sampling rate : 44.1 KHz
Compression mode : Lossy
Delay relative to video : 33ms
Stream size : 24.9 MiB (8%)
Related Torrents
torrent name
size
files
age
seed
leech
2	WowGirls - Final Fantasy - Klara And Hanna [720p].mp4
Posted by C3Porno in XXX > HD Video 590.1 MB
1
2 years
6
1
1	WowGirls - Klara and Hanna - Final Fantasy.mp4
Posted by katz1980 in XXX > Video 590.1 MB
1
2 years
1
0
Sharing Widget
Download torrent
303.28 MB
seeders:4
leechers:0
WowGirls - Klara and Hanna - Final Fantasy
html bbcode Trackers
refresh
tracker name
Status
checked
seeders
leechers
downloads
udp://tracker.openbittorrent.com:80/announce
outdated
07 Dec 2013
-
-
-
udp://tracker.publicbt.com:80/announce
outdated
07 Dec 2013
-
-
-
udp://tracker.1337x.org:80/announce
outdated
15 Jun 2013
-
-
-
http://tracker.istole.it/announce
outdated
15 Jun 2013
-
-
-
udp://tracker.istole.it:80/announce
outdated
15 Jun 2013
-
-
-
udp://fr33dom.h33t.com:3310/announce
deleted
15 Jun 2013
-
-
-
udp://fr33domtracker.h33t.com:3310/announce
deleted
15 Jun 2013
-
-
-
http://tracker.publicbt.com/announce
deleted
15 Jun 2013
-
-
-
http://fr33dom.h33t.com:3310/announce
deleted
15 Jun 2013
-
-
-
udp://tracker.yify-torrents.com:80/announce
pending
07 Dec 2013
4
0
10
udp://torrentbay.to:6969/announce
pending
15 Jun 2013
91
19
1285
µTorrent compatible trackers list
udp://tracker.openbittorrent.com:80/announce
udp://tracker.publicbt.com:80/announce
udp://tracker.1337x.org:80/announce
http://tracker.istole.it/announce
udp://tracker.istole.it:80/announce
udp://fr33dom.h33t.com:3310/announce
udp://fr33domtracker.h33t.com:3310/announce
http://tracker.publicbt.com/announce
http://fr33dom.h33t.com:3310/announce
udp://tracker.yify-torrents.com:80/announce
udp://torrentbay.to:6969/announce
udp://tracker.openbittorrent.com/announce
Locations
name
KickassTorrents
Torrent hash: 9140CF6FB608D68F673C4FBC3124B8033A57DCA9
All Comments
audio
vote 1 awful
2
3
4
5
6
7
8
9
10 best
0/10
video vote 1 awful
2
3
4
5
6
7
8
9
10 best
0/10
please, leave only comments related to that torrent
Not seeing the captcha?
Captcha *:
Post as a guest
or sign-in
0
anonymous
• 17 July 2013, 19:29 Show comment
lol why is it called Final Fantasy??? reply
close
0
anonymous
• 21 June 2013, 04:37 Show comment
wow reply
close
0
atix05244
• 12 June 2013, 16:39 Show comment
reply
close
0
LevValentine854
• 04 March 2013, 04:11 Show comment
thank you reply
close
0
xxxTizzlexxx1349
• 13 October 2012, 16:10 Show comment
Very Nice!! Great Quality reply
close
Not seeing the captcha?
Captcha *:
reply
User Opinions
atix05244, Al4rion3418, rotam1232966, Deiphobus1830, Bachrocco1579, DoctorWong791002, ArchStanton706, deinterlace565, nsane63d557, wersndasda372 ... And 28 more
thriftywatche1182, mpxp455 Advertising (remove)
Latest Forum Threads
Post Threads that Need to be Moved or Trashed V2by .JackSparrow 47 sec. ago
All Things Pink Floyd.....by HenryMcClean 1 min. ago
Need Help? Ask Super Users & Experienced Site Members Here v5by AKashBhat 2 min. ago
What are you playing right now? (Games)by Kan_luk 3 min. ago
How to install Windows 8 from iso ?by G-ALIENWARES 10 min. ago
All Karaoke Requests Hereby songbirdof12 13 min. ago
Latest News
May'14 Updatesby KickassTorrents 1 month ago
April'14 Updatesby KickassTorrents 2 months ago
March upd.1 - Uploader rules fix and Torrents Day 2014by KickassTorrents 3 months ago
Blogroll
Best Of The Bestby VikTSlick 2 hours ago
Question number (277)by man2014now 20 hours ago
Number 100by The.Phoenix yesterday
Religion, Humanity, And The Search For Meaningby VikTSlick yesterday
Outside my Window Part 3by johnno23 yesterday
Question number (276)by man2014now yesterday
Goodies
Firefox search plugin
uTorrent search template
Follow us on Twitter
Kickass wallpapers
Like us on Facebook
IRC official chat
Latest Searches
the ghost rescue
just now
mr.popp
2 sec. ago
arthur duddly moore
2 sec. ago
football manager 2014
2 sec. ago
=young homie
2 sec. ago
adobe photoshop cs6 full
2 sec. ago
greatest movie ever rolled
2 sec. ago
call of duty modern warfare 2 pc
1 sec. ago
alvaro joey dale
2 sec. ago
shaolin kickers ger
2 sec. ago
NOSTEAM
2 sec. ago
Friends Links
Torrents.to
Torrent Downloads
TorrentReactor
Torrent Finder
Select Your Language
English
Afrikaans
Basque
Bengali
Bosnian
Chinese Simplified
Croatian
Czech
Danish
Dutch
Filipino
Finnish
French
Georgian
German
Greek
Hindi
Hungarian
Indonesian
Italian
Lithuanian
Malaysian
Norwegian
Pirate
Polish
Portuguese
Romanian
Russian
Serbian
Serbian-Cyrillic
Slovak
Spanish
Swedish
Telugu
Turkish
change language
rules
idea box
Achievements
trends
Latest Searches
torrent requests about
privacy
dmca
logos
contacts
api
chat
BitCoin: 19CWNopXCHSwWtWQ89NHC471LMn2Gy5j5G
Report a bug

